<svg role="img" viewBox="0 0 24 24" xmlns="http://www.w3.org/2000/svg"><title>Met Éireann icon</title><path d="M10.213 8.717c.12.094.43.31.43.553 0 .241-.08.78-.498.97-.417.187-.862-.041-1.212-.337-.35-.297-.88-1.118-.848-1.833.04-.938.538-1.953.901-2.398.365-.444 1.69-2.098 3.99-1.94 2.16.148 3.34 1.612 3.502 1.8.162.188 1.545 1.707 1.092 4.963 0 0-.105 2.96-3.015 6.032-.962 1.016-.898 1.114-2.316 2.138-1.42 1.024-6 4.796-6.935 5.335 0 0 .894-.42.755-1.706-.144-1.33-2.983-2.838-2.983-2.838s2.174.52 5.893-1.15c3.64-1.637 5.424-3.27 6.574-5.3 1.15-2.03 1.51-4.628.898-6.09-.683-1.635-1.886-2.767-3.502-2.838-1.617-.072-2.77.807-3.109 1.24-.322.413-.984 1.044-.879 1.993.108.97.45 1.06.494 1.082 0 0 .646.23.768.324zm2.304-1.82s-.795.916-.97.984c-.175.068-.683.077-.889-.525-.147-.431.026-.876.176-1.038.147-.162.968-.875 1.48-.983.512-.107 1.752.08 2.318.755.566.673.835 1.4.849 1.563.013.16.296 2.089-.188 3.422-.486 1.333-.984 2.277-3.14 2.775-2.155.5-4.218-.58-4.595-.836-.376-.255-2.21-1.675-2.358-4.593-.108-2.143.323-3.14.809-3.975.485-.836 2.022-2.803 3.88-3.597C11.653.095 13.46 0 14.215 0c.754 0 2.31.253 2.613.404.107.054-.525.256-.66.566-.134.31-.184.554.108.943.04.053-1.307-.764-2.964-.795-1.672-.031-2.996.535-4.451 1.45-.556.35-1.438.853-2.002 1.892-.574 1.049-1.15 2.278-1.12 3.543.055 2.182 1.174 3.92 1.94 4.433.68.452 2.358 1.077 3.68.943 1.319-.134 2.262-.472 2.977-1.482.714-1.011.708-2.624.382-3.74-.217-.738-.95-1.345-1.312-1.457-.467-.144-.89.198-.89.198m8.408-.89s-.754-.026-1.402.54c-.647.566-.754 1.454-.754 1.454s-1.527-3.52-2.955-4.41c-1.428-.889-4.28-1.88-6.853.517-2.093 1.95-2.142 4.608-1.176 6.058 0 0 .555.922 2.388 1.339 0 0 1.268.182 2.008-.39.538-.419.345-.626.328-.679-.018-.054-.863-.952-.395-1.563.467-.61 1.275-.018 1.275-.018s.4.308.287 1.15c-.134 1.002-.852 1.762-2.236 2.025-1.563.298-2.812-.157-3.62-1.145-.464-.566-.852-1.15-.935-1.869-.215-1.885-.035-3.25 1.24-4.778 1.256-1.504 3-2.192 4.761-2.137 1.942.059 4.258.988 5.335 1.687 1.078.702 2.704 2.22 2.704 2.22Z"/></svg>